<svg width="16" height="16" viewBox="0 0 16 16" fill="none" xmlns="http://www.w3.org/2000/svg">
<path fill-rule="evenodd" clip-rule="evenodd" d="M8 16C12.4183 16 16 12.4183 16 8C16 3.58172 12.4183 0 8 0C3.58172 0 0 3.58172 0 8C0 12.4183 3.58172 16 8 16Z" fill="#303C44"/>
<path d="M5.76855 12H10.3291V11.209H6.77441L6.98926 11.3555V10.9502L6.76953 11.3555L8.59082 9.47559C9.01725 9.03613 9.34766 8.66667 9.58203 8.36719C9.81641 8.06445 9.97917 7.78939 10.0703 7.54199C10.1647 7.2946 10.2119 7.03743 10.2119 6.77051V6.76074C10.2119 6.37988 10.1159 6.04134 9.92383 5.74512C9.73503 5.44889 9.47624 5.21615 9.14746 5.04688C8.81868 4.87435 8.44922 4.78809 8.03906 4.78809C7.58984 4.78809 7.19108 4.88086 6.84277 5.06641C6.49447 5.2487 6.22103 5.5026 6.02246 5.82812C5.82389 6.15039 5.72298 6.51986 5.71973 6.93652L5.72949 6.94141L6.56934 6.94629L6.57422 6.93652C6.57422 6.65983 6.63281 6.41895 6.75 6.21387C6.86719 6.00553 7.03158 5.8444 7.24316 5.73047C7.45475 5.61328 7.70052 5.55469 7.98047 5.55469C8.25716 5.55469 8.49479 5.61165 8.69336 5.72559C8.89193 5.83952 9.04492 5.99414 9.15234 6.18945C9.25977 6.38477 9.31348 6.60612 9.31348 6.85352V6.86328C9.31348 7.06836 9.2793 7.25716 9.21094 7.42969C9.14258 7.60221 9.02376 7.7959 8.85449 8.01074C8.68522 8.22233 8.45085 8.49089 8.15137 8.81641L5.76855 11.3945V12Z" fill="white"/>
</svg>
