<svg width="24" height="24" viewBox="0 0 24 24" fill="none" xmlns="http://www.w3.org/2000/svg">
<path fill-rule="evenodd" clip-rule="evenodd" d="M4.5327 4.29025C4.16634 4.66155 4.16634 5.25832 4.5327 5.62962L10.6862 11.8661L4.26842 18.3704C3.90206 18.7417 3.90206 19.3385 4.26842 19.7098C4.64179 20.0882 5.25248 20.0882 5.62585 19.7098L12.0257 13.2236L18.3741 19.6576C18.7475 20.036 19.3582 20.036 19.7315 19.6576C20.0979 19.2863 20.0979 18.6895 19.7315 18.3182L13.3652 11.8661L19.4672 5.68176C19.8336 5.31046 19.8336 4.71369 19.4672 4.34239C19.0939 3.964 18.4832 3.964 18.1098 4.34239L12.0257 10.5085L5.89012 4.29025C5.51676 3.91186 4.90606 3.91186 4.5327 4.29025Z" fill="#9BA4AB"/>
<mask id="mask0_2557_339" style="mask-type:alpha" maskUnits="userSpaceOnUse" x="3" y="4" width="18" height="16">
<path fill-rule="evenodd" clip-rule="evenodd" d="M4.5327 4.29025C4.16634 4.66155 4.16634 5.25832 4.5327 5.62962L10.6862 11.8661L4.26842 18.3704C3.90206 18.7417 3.90206 19.3385 4.26842 19.7098C4.64179 20.0882 5.25248 20.0882 5.62585 19.7098L12.0257 13.2236L18.3741 19.6576C18.7475 20.036 19.3582 20.036 19.7315 19.6576C20.0979 19.2863 20.0979 18.6895 19.7315 18.3182L13.3652 11.8661L19.4672 5.68176C19.8336 5.31046 19.8336 4.71369 19.4672 4.34239C19.0939 3.964 18.4832 3.964 18.1098 4.34239L12.0257 10.5085L5.89012 4.29025C5.51676 3.91186 4.90606 3.91186 4.5327 4.29025Z" fill="white"/>
</mask>
<g mask="url(#mask0_2557_339)">
</g>
</svg>
