<svg width="343" height="48" viewBox="0 0 343 48" fill="none" xmlns="http://www.w3.org/2000/svg">
<rect width="343" height="48" rx="4" fill="#FF3E3E"/>
<path d="M135.763 30.2734C138.279 30.2734 140.13 28.7891 140.443 26.5625H138.701C138.388 27.8359 137.255 28.6406 135.763 28.6406C133.732 28.6406 132.466 26.9922 132.466 24.3672C132.466 21.7344 133.732 20.0859 135.755 20.0859C137.24 20.0859 138.372 20.9766 138.701 22.3594H140.443C140.162 20.0625 138.24 18.4531 135.755 18.4531C132.622 18.4531 130.677 20.7109 130.677 24.3672C130.677 28.0156 132.63 30.2734 135.763 30.2734ZM147.392 18.4531C144.158 18.4531 142.127 20.7188 142.127 24.3594C142.127 27.9922 144.119 30.2734 147.392 30.2734C150.658 30.2734 152.642 27.9844 152.642 24.3594C152.642 20.7266 150.642 18.4531 147.392 18.4531ZM147.392 20.0859C149.533 20.0859 150.853 21.7422 150.853 24.3594C150.853 26.9609 149.533 28.6406 147.392 28.6406C145.228 28.6406 143.916 26.9609 143.916 24.3594C143.916 21.7422 145.267 20.0859 147.392 20.0859ZM156.552 30V21.9922H156.677L162.467 30H164.045V18.7266H162.342V26.7344H162.217L156.427 18.7266H154.849V30H156.552ZM171.33 30V20.3203H174.869V18.7266H166.033V20.3203H169.58V30H171.33ZM178.607 30V18.7266H176.857V30H178.607ZM182.979 30V21.9922H183.104L188.893 30H190.471V18.7266H188.768V26.7344H188.643L182.854 18.7266H181.276V30H182.979ZM194.928 18.7266H193.178V26.1172C193.178 28.5625 194.913 30.2734 197.741 30.2734C200.569 30.2734 202.311 28.5625 202.311 26.1172V18.7266H200.561V25.9609C200.561 27.5391 199.538 28.6328 197.741 28.6328C195.952 28.6328 194.928 27.5391 194.928 25.9609V18.7266ZM212.159 28.4062H206.753V25.0234H211.87V23.5078H206.753V20.3203H212.159V18.7266H205.003V30H212.159V28.4062Z" fill="white"/>
</svg>
