<svg width="126" height="126" viewBox="0 0 126 126" fill="none" xmlns="http://www.w3.org/2000/svg">
<path d="M69.7714 11.2759L24.8914 27.1008V59.0713C24.8914 90.1865 40.6541 98.9543 67.1442 113.924L69.8808 115.207L72.6174 113.924C98.9981 98.9543 114.651 90.1865 114.651 59.0713V27.1008L69.7714 11.2759Z" fill="#FFC65C"/>
<g clip-path="url(#clip0_2288_33008)">
<path d="M78.7719 46.9068C78.7719 46.9068 90.745 52.8183 94.2942 62.5071C97.8434 72.1959 91.1156 80.2218 92.6037 86.1705C94.0918 92.1192 68.3467 92.405 68.3467 92.405C68.3467 92.405 74.6184 81.6704 75.4308 72.7102C76.2433 63.75 75.4479 51.8983 75.4479 51.8983L78.7719 46.9068Z" fill="#EE3C39"/>
<path d="M71.0776 14.5318C67.3118 17.6518 64.2928 23.2263 65.282 28.3235C65.7895 30.9379 67.4486 33.9265 70.4561 39.3352C71.0092 40.3266 71.548 41.2438 71.7846 42.6524C72.3262 45.8896 70.573 47.6097 71.5166 48.8897C72.3889 50.0754 74.9375 50.0326 76.6907 49.1525C78.8174 48.0668 78.7775 46.1925 80.4765 43.7639C83.1505 39.9466 85.9557 40.7066 89.2967 37.5866C92.1475 34.9151 94.1231 30.5978 94.0233 26.492C93.8266 18.4633 85.6991 10.6374 78.1503 11.2717C74.6524 11.566 72.2008 13.6003 71.0776 14.5318Z" fill="white"/>
<path d="M73.9342 50.2297C72.7939 50.2297 71.7277 49.9011 71.1718 49.144C70.6159 48.3868 70.8126 47.4725 71.072 46.4553C71.3172 45.4867 71.625 44.2839 71.3571 42.7238C71.1433 41.4581 70.6672 40.5981 70.1597 39.6895L70.0771 39.5438C67.0467 34.0922 65.379 31.0864 64.8574 28.4006C63.7912 22.9091 67.1893 17.1861 70.8012 14.1946C71.9015 13.2832 74.4786 11.146 78.1105 10.8403C81.6312 10.5545 85.4854 12.0231 88.6839 14.9003C92.1904 18.0433 94.3455 22.3805 94.4453 26.4777C94.5451 30.575 92.635 35.0494 89.5819 37.9066C88.0624 39.3352 86.677 39.9552 85.3372 40.5666C83.6837 41.3209 82.2526 41.9724 80.8216 44.0181C80.3125 44.77 79.869 45.5644 79.4959 46.3925C78.883 47.6754 78.3557 48.7868 76.879 49.5354C75.9631 49.9891 74.9558 50.2266 73.9342 50.2297ZM79.0142 11.6574C78.7291 11.6574 78.4611 11.6574 78.1875 11.6917C74.8236 11.9774 72.486 13.9175 71.3457 14.8518C67.9248 17.689 64.6977 23.0862 65.6955 28.2321C66.1915 30.7807 67.8364 33.7408 70.8268 39.118L70.9095 39.2638C71.4283 40.1952 71.9671 41.1609 72.2037 42.5724C72.4888 44.3096 72.1638 45.6125 71.8987 46.6582C71.645 47.6468 71.531 48.184 71.856 48.6268C72.5316 49.544 74.8293 49.6097 76.4941 48.7611C77.7114 48.1382 78.1362 47.2439 78.7291 46.0068C79.12 45.1351 79.5864 44.2995 80.1231 43.5096C81.6882 41.2752 83.2903 40.5438 84.9865 39.7723C86.2636 39.2009 87.5835 38.5894 89.0004 37.2637C91.8853 34.5722 93.687 30.3435 93.5929 26.4949C93.4988 22.6462 91.452 18.5319 88.1166 15.5346C85.3457 13.0489 82.073 11.666 79.0142 11.666V11.6574Z" fill="#231F20"/>
<path d="M80.594 30.0244C80.9146 29.7075 80.9621 29.2348 80.7001 28.9685C80.4381 28.7022 79.9658 28.7432 79.6452 29.0601C79.3246 29.377 79.2771 29.8497 79.5391 30.116C79.8011 30.3823 80.2734 30.3413 80.594 30.0244Z" fill="#231F20"/>
<path d="M67.7234 23.8715C68.044 23.5546 68.0916 23.0819 67.8295 22.8156C67.5675 22.5493 67.0952 22.5903 66.7746 22.9072C66.454 23.2241 66.4065 23.6968 66.6685 23.9631C66.9305 24.2294 67.4028 24.1884 67.7234 23.8715Z" fill="#231F20"/>
<path d="M71.8446 31.6464C71.8191 31.6492 71.7933 31.6492 71.7677 31.6464C71.558 31.5926 71.3644 31.4889 71.2031 31.3442C71.0418 31.1994 70.9177 31.0179 70.8412 30.815C70.12 28.9921 72.5317 24.8891 72.6343 24.7149C72.6729 24.6497 72.7357 24.6026 72.8089 24.5838C72.8822 24.565 72.9598 24.5762 73.0248 24.6148C73.0899 24.6535 73.1369 24.7165 73.1556 24.7899C73.1743 24.8633 73.1632 24.9411 73.1246 25.0063C72.4632 26.1234 70.844 29.2921 71.3714 30.6036C71.4155 30.7251 71.4892 30.8338 71.5858 30.9196C71.6823 31.0054 71.7988 31.0657 71.9245 31.095C72.0001 31.1056 72.0684 31.1459 72.1144 31.207C72.1603 31.2681 72.1802 31.3449 72.1696 31.4207C72.159 31.4965 72.1189 31.565 72.0579 31.611C71.997 31.6571 71.9203 31.677 71.8446 31.6664V31.6464Z" fill="#231F20"/>
<path d="M74.302 35.9951C74.2241 35.9993 74.1461 35.9993 74.0682 35.9951C73.6736 35.9526 73.2927 35.8251 72.9518 35.6214C72.6108 35.4178 72.3178 35.1427 72.0926 34.8151C72.0693 34.784 72.0526 34.7485 72.0435 34.7108C72.0343 34.673 72.0329 34.6338 72.0394 34.5955C72.0459 34.5572 72.0601 34.5206 72.0812 34.488C72.1023 34.4554 72.1298 34.4274 72.162 34.4058C72.1942 34.3842 72.2305 34.3694 72.2686 34.3624C72.3068 34.3553 72.3459 34.3561 72.3837 34.3647C72.4215 34.3734 72.4572 34.3896 72.4885 34.4125C72.5198 34.4354 72.5461 34.4645 72.5659 34.4979C72.7429 34.7556 72.9734 34.972 73.2415 35.1323C73.5097 35.2925 73.8091 35.3929 74.1195 35.4265C74.4132 35.4474 74.708 35.4075 74.9856 35.3092C75.2632 35.2109 75.5177 35.0563 75.733 34.8551C75.7891 34.8095 75.8604 34.7869 75.9325 34.792C76.0045 34.797 76.072 34.8293 76.1212 34.8823C76.1704 34.9352 76.1978 35.0049 76.1977 35.0773C76.1976 35.1497 76.1701 35.2194 76.1207 35.2722C75.6241 35.7296 74.9764 35.987 74.302 35.9951Z" fill="#231F20"/>
<path d="M81.1951 35.5878C81.6435 35.1446 81.5822 34.3536 81.0582 33.821C80.5342 33.2884 79.7459 33.216 79.2975 33.6592C78.8491 34.1024 78.9104 34.8934 79.4344 35.426C79.9584 35.9585 80.7467 36.031 81.1951 35.5878Z" fill="#EF8B88"/>
<path d="M67.5068 28.5468C67.9552 28.1036 67.7505 27.1668 67.0496 26.4545C66.3488 25.7421 65.4171 25.5239 64.9687 25.9671C64.5202 26.4103 64.7249 27.3471 65.4258 28.0594C66.1267 28.7718 67.0584 28.9899 67.5068 28.5468Z" fill="#EF8B88"/>
<path d="M84.2768 25.5492L67.2806 17.5061C66.9697 17.361 66.7239 17.105 66.591 16.788C66.4582 16.4711 66.448 16.1159 66.5622 15.7918C67.1147 14.3773 67.9489 13.0905 69.014 12.0097C70.079 10.929 71.3526 10.0771 72.7569 9.50593C78.0308 7.31445 88.359 6.56872 95.0669 16.7375C100.033 24.2605 98.0773 30.975 95.4346 35.2665C93.9294 37.7094 83.3646 38.0437 83.3646 38.0437C83.2904 37.2237 86.6686 27.8406 86.1497 27.1863L85.7278 26.6635C85.3321 26.1893 84.8365 25.8088 84.2768 25.5492Z" fill="#231F20"/>
<path d="M62.6764 62.9757C62.226 64.4986 59.8257 86.4476 59.8257 86.4476L83.4014 88.2134L85.3085 59.247L78.7803 46.9068L62.4056 53.5783L62.6764 62.9757Z" fill="white"/>
<path d="M83.792 88.6734L59.344 86.8419L59.3925 86.402C59.4894 85.5162 61.75 64.9558 62.2432 62.9271L61.9581 53.2926L78.9657 46.3639L85.7334 59.1556V59.2756L83.792 88.6734ZM60.3047 86.0534L83.0081 87.7677L84.881 59.3528L78.5894 47.4611L62.8476 53.8727L63.1327 63.0443L63.1127 63.11C62.7449 64.25 61.1371 78.3618 60.3047 86.0534Z" fill="#231F20"/>
<path d="M62.3971 53.5784C64.3689 51.66 65.8992 49.3334 66.8813 46.7611H71.4767L72.2151 47.6325C72.8035 48.3501 73.6419 48.8169 74.5607 48.9384C75.4795 49.0599 76.4101 48.827 77.164 48.2868C77.2353 48.2325 77.3037 48.1754 77.3721 48.1182L78.7718 46.9068C78.7718 46.9068 81.9333 50.4583 83.1363 51.9098C84.3393 53.3612 85.3029 56.1184 85.3 59.2471C85.3 61.03 79.2907 67.2472 73.2556 67.8187C69.9231 68.1215 45.9055 48.4782 45.9055 48.4782L49.429 42.5524C49.429 42.5524 64.8231 56.887 69.3187 57.6956C74.0367 58.5528 76.343 56.2499 76.343 56.2499" fill="white"/>
<path d="M73.2014 68.2387C69.5125 68.2387 48.0863 50.8097 45.6347 48.8097L45.3496 48.5754L49.3407 41.8781L49.7284 42.2381C49.8281 42.3324 56.5701 48.604 62.3657 53.0269C64.1623 51.2026 65.5646 49.0269 66.4851 46.6353L66.5848 46.3496H71.6848L72.5401 47.3725C73.0568 48.0089 73.7961 48.424 74.6074 48.5334C75.4188 48.6427 76.2413 48.4381 76.9074 47.9611C76.9701 47.9125 77.0328 47.8639 77.0927 47.8096L78.8031 46.3239L79.0882 46.6382C79.1196 46.6753 82.2668 50.2126 83.4613 51.6526C84.8382 53.3098 85.7419 56.2984 85.7248 59.2642C85.7248 61.3442 79.5415 67.6844 73.2927 68.253L73.2014 68.2387ZM46.4614 48.3668C55.9857 56.1441 70.6528 67.3844 73.1529 67.3844H73.2157C79.3505 66.8129 84.8724 60.5528 84.8724 59.2499C84.8724 56.4727 84.0628 53.6983 82.8084 52.184C81.8306 51.0097 79.5329 48.4125 78.7319 47.5096L77.6514 48.444C77.5773 48.5097 77.4975 48.5725 77.4177 48.6325C76.5776 49.2405 75.5377 49.5046 74.5101 49.3708C73.4825 49.237 72.5445 48.7155 71.8872 47.9125L71.28 47.1925H67.1806C66.2293 49.5588 64.825 51.7156 63.047 53.5412C65.6925 55.5184 68.0615 57.0327 69.3957 57.2756C71.7076 57.6984 73.3867 57.3156 74.3959 56.9184C74.999 56.6979 75.5572 56.3698 76.0436 55.9498L76.6451 56.5584C76.5453 56.6584 74.125 59.0099 69.2332 58.1185C65.0198 57.3499 51.9947 45.4982 49.5174 43.2181L46.4614 48.3668Z" fill="#231F20"/>
<path d="M63.7028 62.3957C57.5053 65.6701 41.5696 62.2157 41.5696 62.2157L44.1695 56.9356C44.1695 56.9356 46.5698 58.5356 53.748 57.6013C54.7134 57.4428 55.6661 57.2145 56.5987 56.9184L63.7028 62.3957Z" fill="white"/>
<path d="M55.5155 64.2386C48.9987 64.2386 41.9203 62.73 41.4784 62.6328L40.9453 62.5186L44.0013 56.3098L44.4061 56.5813C44.4261 56.5813 46.8236 58.0699 53.6939 57.1784C54.6213 57.0228 55.5368 56.8023 56.4335 56.5184L56.6586 56.4327L64.4925 62.4614L63.9024 62.7728C61.8271 63.87 58.7397 64.2386 55.5155 64.2386ZM42.1996 61.9043C44.9193 62.4443 57.2003 64.6758 62.8847 62.3043L56.5104 57.4013C55.622 57.6642 54.7185 57.8731 53.805 58.027C48.1206 58.767 45.3469 57.9385 44.3634 57.5127L42.1996 61.9043Z" fill="#231F20"/>
<path d="M62.0151 86.6134C62.0151 86.6134 54.9538 96.225 55.3501 101.168C55.9772 108.971 60.1194 117.006 60.1194 117.006L62.3999 116.223C62.3999 116.223 59.5834 106.722 59.5834 102.631C59.5834 98.4079 66.9441 86.982 66.9441 86.982L62.0151 86.6134Z" fill="black"/>
<path d="M59.9027 117.531L59.7345 117.203C59.6917 117.123 55.5467 109.002 54.9196 101.202C54.5119 96.1564 61.3737 86.7562 61.6673 86.3448L61.807 86.1534L67.6995 86.5934L67.3089 87.202C67.2348 87.3134 60.0167 98.5679 60.0167 102.631C60.0167 106.614 62.7877 116.005 62.8133 116.1L62.9302 116.497L59.9027 117.531ZM62.2175 87.0591C61.2397 88.4277 55.4213 96.7736 55.7719 101.134C56.3136 107.88 59.5606 114.894 60.3331 116.48L61.8811 115.951C61.3423 114.085 59.1643 106.308 59.1643 102.631C59.1643 98.8508 64.6691 89.8077 66.2085 87.3563L62.2175 87.0591Z" fill="#231F20"/>
<path d="M75.1286 87.5963C75.1286 87.5963 68.3153 100.291 68.7144 105.234C69.3415 113.037 85.1974 116.223 85.1974 116.223L87.0903 115.243C87.0903 115.243 73.0076 108.957 73.0076 104.874C73.0076 100.651 79.7696 87.942 79.7696 87.942L75.1286 87.5963Z" fill="black"/>
<path d="M85.2574 116.674L85.112 116.643C82.3381 116.034 79.6275 115.166 77.0159 114.048C71.4968 111.628 68.5577 108.674 68.284 105.268C67.8821 100.257 74.4702 87.9163 74.7495 87.3934L74.8807 87.1477L80.4539 87.5648L80.146 88.1363C80.0776 88.262 73.4325 100.797 73.4325 104.865C73.4325 108.008 83.4101 113.125 87.2615 114.843L88.0739 115.203L85.2574 116.674ZM75.3738 88.0449C74.4388 89.8278 68.7829 100.811 69.1364 105.188C69.7065 112.194 83.5555 115.417 85.1348 115.76L86.1098 115.254C82.8998 113.763 72.5773 108.682 72.5773 104.862C72.5773 101.042 77.7457 90.8821 79.0855 88.3106L75.3738 88.0449Z" fill="#231F20"/>
<path d="M62.9075 117.291L57.1832 120.111C57.0332 120.195 56.9171 120.328 56.855 120.489C56.7929 120.649 56.7887 120.826 56.8432 120.99C56.8977 121.153 57.0074 121.292 57.1533 121.382C57.2992 121.473 57.4721 121.509 57.6421 121.486L63.834 120.568L62.9075 117.291Z" fill="#231F20"/>
<path d="M87.9569 116.526L82.2298 119.343C82.0793 119.426 81.9628 119.56 81.9006 119.721C81.8384 119.882 81.8344 120.059 81.8893 120.223C81.9442 120.386 82.0546 120.525 82.2012 120.615C82.3478 120.706 82.5213 120.742 82.6916 120.717L88.8834 119.8L87.9569 116.526Z" fill="#231F20"/>
<path d="M27.3471 78.6704C6.8588 60.8814 14.4247 15.8661 14.4247 15.8661C25.7564 20.389 42.1824 13.3803 42.1824 13.3803C42.1824 13.3803 52.83 31.8121 64.0534 36.8094C64.0534 36.8065 51.627 79.7732 27.3471 78.6704Z" fill="#EE3C39"/>
<path d="M28.2566 79.1189C27.9487 79.1189 27.638 79.1189 27.3272 79.0989H27.179L27.065 78.9989C16.369 69.713 13.3814 52.9983 12.7742 40.6238C12.3883 32.329 12.7997 24.0162 14.0028 15.8004L14.0912 15.2746L14.5815 15.4718C25.6196 19.8776 41.8547 13.0603 42.0172 12.9917L42.3649 12.8431L42.5531 13.1717C42.6586 13.3546 53.2605 31.5407 64.2188 36.4208L64.5609 36.5723L64.4582 36.9323C64.4269 37.0408 61.2654 47.8468 55.1677 58.3613C51.5757 64.5615 47.6816 69.4587 43.5936 72.9159C38.7359 77.036 33.5761 79.1189 28.2566 79.1189ZM27.5125 78.2618C32.8919 78.4646 38.1145 76.456 43.0491 72.2816C47.063 68.8873 50.8944 64.0643 54.435 57.9499C59.8514 48.5811 62.9416 38.9952 63.5374 37.0551C58.9107 34.8865 53.8791 30.3293 48.571 23.4977C46.2033 20.4374 44.014 17.2425 42.0143 13.9289C38.9739 15.1154 35.8432 16.0546 32.6524 16.7375C23.8664 18.6261 18.1393 17.6804 14.7754 16.4518C13.6492 24.4448 13.2675 32.5256 13.6351 40.5895C14.2366 52.7555 17.1387 69.1387 27.5211 78.2475L27.5125 78.2618Z" fill="black"/>
<path d="M28.6784 72.8074C11.859 58.2127 18.0765 21.2805 18.0765 21.2805C27.3756 24.9948 40.8511 19.2433 40.8511 19.2433C40.8511 19.2433 49.5858 34.3636 58.7937 38.4637C58.7937 38.4637 48.5995 73.7102 28.6784 72.8074Z" fill="white"/>
<path d="M69.3757 22.7034C69.3009 22.7031 69.2293 22.6733 69.1762 22.6205L67.0552 20.5176C67.0287 20.4912 67.0075 20.4597 66.993 20.4251C66.9786 20.3905 66.9711 20.3533 66.9709 20.3158C66.9708 20.2782 66.9781 20.241 66.9923 20.2063C67.0065 20.1715 67.0274 20.14 67.0538 20.1133C67.0802 20.0867 67.1115 20.0655 67.1461 20.051C67.1806 20.0365 67.2177 20.029 67.2552 20.0289C67.2926 20.0287 67.3298 20.036 67.3644 20.0503C67.3991 20.0645 67.4306 20.0854 67.4572 20.1119L69.5753 22.2148C69.6153 22.2546 69.6427 22.3054 69.6539 22.3608C69.6651 22.4161 69.6597 22.4736 69.6383 22.5259C69.617 22.5782 69.5807 22.623 69.5339 22.6546C69.4872 22.6862 69.4321 22.7031 69.3757 22.7034Z" fill="#231F20"/>
<path d="M82.5006 27.7492L78.8488 27.7292C78.7732 27.7292 78.7007 27.6991 78.6472 27.6455C78.5937 27.5919 78.5637 27.5193 78.5637 27.4435C78.5637 27.3677 78.5937 27.295 78.6472 27.2415C78.7007 27.1879 78.7732 27.1578 78.8488 27.1578L82.5006 27.1778C82.5762 27.1778 82.6487 27.2079 82.7022 27.2615C82.7556 27.315 82.7857 27.3877 82.7857 27.4635C82.7857 27.5393 82.7556 27.6119 82.7022 27.6655C82.6487 27.7191 82.5762 27.7492 82.5006 27.7492Z" fill="#231F20"/>
<path d="M65.7498 14.5918L67.7453 11.0574C67.7453 11.0574 77.053 13.6489 79.4875 12.546C79.4875 12.546 86.7541 21.2948 90.3204 22.592L88.4503 26.2806L65.7498 14.5918Z" fill="white"/>
<path d="M88.4503 26.5663C88.4048 26.5658 88.36 26.555 88.3192 26.5349L65.6186 14.8518C65.5843 14.8339 65.554 14.8093 65.5295 14.7793C65.505 14.7493 65.4868 14.7147 65.4761 14.6775C65.4655 14.6409 65.4624 14.6027 65.4668 14.5649C65.4712 14.5271 65.4831 14.4906 65.5017 14.4575L67.4973 10.9231C67.5282 10.867 67.5771 10.823 67.6361 10.7981C67.695 10.7733 67.7606 10.769 67.8223 10.786C67.9163 10.8145 77.0587 13.3403 79.3707 12.2917C79.4274 12.2659 79.4911 12.2595 79.5518 12.2735C79.6126 12.2874 79.6671 12.3209 79.7071 12.3688C79.7812 12.4574 86.9679 21.0719 90.4316 22.3291C90.4698 22.3428 90.5046 22.3646 90.5337 22.393C90.5628 22.4213 90.5856 22.4556 90.6004 22.4935C90.6153 22.5313 90.6219 22.5719 90.6198 22.6126C90.6177 22.6532 90.607 22.6929 90.5884 22.7291L88.7183 26.4006C88.7014 26.4341 88.6782 26.464 88.6498 26.4885C88.6214 26.513 88.5885 26.5317 88.5529 26.5435C88.5202 26.5567 88.4855 26.5644 88.4503 26.5663ZM66.1432 14.486L88.3249 25.8949L89.9241 22.752C86.4747 21.2205 80.3912 14.0917 79.3764 12.8974C76.8306 13.7546 69.2733 11.7831 67.8622 11.4031L66.1432 14.486Z" fill="#231F20"/>
<path d="M67.2806 15.6746C67.2316 15.6745 67.1835 15.6617 67.1409 15.6375C67.0752 15.6003 67.0269 15.5385 67.0066 15.4657C66.9863 15.3928 66.9956 15.3149 67.0326 15.2489L69.1165 11.5346C69.1543 11.4682 69.2168 11.4197 69.2903 11.3996C69.3638 11.3795 69.4423 11.3895 69.5085 11.4274C69.5746 11.4653 69.623 11.528 69.6431 11.6016C69.6631 11.6753 69.6532 11.754 69.6154 11.8203L67.5286 15.5346C67.5031 15.5777 67.4668 15.6133 67.4233 15.6379C67.3798 15.6625 67.3305 15.6751 67.2806 15.6746Z" fill="#231F20"/>
<path d="M68.9766 16.5661C68.9277 16.5659 68.8796 16.5531 68.8369 16.5289C68.7713 16.4917 68.723 16.4299 68.7027 16.3571C68.6823 16.2843 68.6917 16.2063 68.7286 16.1404L71.186 11.7745C71.2047 11.7419 71.2296 11.7133 71.2594 11.6903C71.2891 11.6673 71.3231 11.6505 71.3594 11.6406C71.3956 11.6308 71.4335 11.6282 71.4707 11.6331C71.508 11.6379 71.5439 11.6501 71.5765 11.6688C71.6091 11.6876 71.6376 11.7126 71.6606 11.7424C71.6835 11.7723 71.7003 11.8063 71.7101 11.8427C71.7199 11.879 71.7225 11.9169 71.7177 11.9543C71.7128 11.9916 71.7007 12.0276 71.682 12.0603L69.2246 16.4261C69.1992 16.4692 69.1628 16.5048 69.1193 16.5293C69.0758 16.5539 69.0266 16.5666 68.9766 16.5661Z" fill="#231F20"/>
<path d="M70.7357 17.3375C70.6868 17.3368 70.6388 17.324 70.596 17.3004C70.5631 17.282 70.5342 17.2572 70.5109 17.2275C70.4876 17.1978 70.4704 17.1637 70.4603 17.1273C70.4503 17.0909 70.4475 17.0529 70.4522 17.0154C70.4569 16.9779 70.4689 16.9417 70.4877 16.909L72.945 12.546C72.9821 12.4802 73.0438 12.4318 73.1164 12.4114C73.1891 12.3911 73.2669 12.4004 73.3327 12.4374C73.3984 12.4746 73.4467 12.5364 73.467 12.6093C73.4873 12.6821 73.4779 12.76 73.441 12.826L70.9837 17.1918C70.9589 17.236 70.9229 17.2727 70.8794 17.2983C70.8358 17.3239 70.7862 17.3375 70.7357 17.3375Z" fill="#231F20"/>
<path d="M72.2352 18.5661C72.1855 18.5661 72.1367 18.5529 72.0936 18.5281C72.0505 18.5032 72.0146 18.4675 71.9896 18.4245C71.9645 18.3815 71.9511 18.3326 71.9507 18.2828C71.9503 18.2329 71.9629 18.1839 71.9872 18.1404L75.1288 12.566C75.1475 12.5334 75.1724 12.5047 75.2022 12.4818C75.2319 12.4588 75.2659 12.4419 75.3022 12.4321C75.3385 12.4223 75.3763 12.4197 75.4136 12.4245C75.4508 12.4294 75.4867 12.4415 75.5193 12.4603C75.5519 12.4791 75.5805 12.5041 75.6034 12.5339C75.6263 12.5637 75.6431 12.5978 75.6529 12.6341C75.6627 12.6705 75.6653 12.7084 75.6605 12.7457C75.6556 12.7831 75.6435 12.8191 75.6248 12.8517L72.489 18.4261C72.463 18.4701 72.4258 18.5062 72.3812 18.5308C72.3365 18.5555 72.2862 18.5677 72.2352 18.5661Z" fill="#231F20"/>
<path d="M74.0225 19.3119C73.9736 19.3111 73.9257 19.2984 73.8829 19.2747C73.8499 19.2563 73.821 19.2315 73.7977 19.2018C73.7744 19.1721 73.7573 19.1381 73.7472 19.1017C73.7371 19.0653 73.7343 19.0272 73.739 18.9897C73.7437 18.9523 73.7558 18.9161 73.7745 18.8833L77.2667 12.6774C77.3038 12.6116 77.3655 12.5632 77.4381 12.5428C77.5108 12.5225 77.5886 12.5318 77.6544 12.5689C77.6873 12.5873 77.7162 12.6121 77.7395 12.6418C77.7628 12.6715 77.78 12.7055 77.79 12.7419C77.8001 12.7783 77.8029 12.8164 77.7982 12.8539C77.7935 12.8913 77.7814 12.9275 77.7627 12.9603L74.2734 19.1661C74.2484 19.2107 74.2119 19.2477 74.1678 19.2734C74.1237 19.299 74.0735 19.3123 74.0225 19.3119Z" fill="#231F20"/>
<path d="M75.7188 20.1947C75.6698 20.1946 75.6217 20.1818 75.5791 20.1576C75.5134 20.1204 75.4651 20.0586 75.4448 19.9857C75.4245 19.9129 75.4339 19.835 75.4708 19.769L79.4049 12.7746C79.4427 12.7086 79.505 12.6605 79.5783 12.6407C79.6515 12.6208 79.7296 12.631 79.7954 12.6689C79.8612 12.7067 79.9093 12.7693 79.929 12.8427C79.9488 12.9161 79.9387 12.9944 79.9009 13.0603L75.964 20.0519C75.9391 20.0951 75.9034 20.131 75.8604 20.156C75.8174 20.1811 75.7686 20.1944 75.7188 20.1947Z" fill="#231F20"/>
<path d="M77.4776 20.9719C77.4286 20.9718 77.3805 20.959 77.3379 20.9348C77.2722 20.8975 77.2239 20.8358 77.2036 20.7629C77.1833 20.6901 77.1927 20.6121 77.2296 20.5462L80.8215 14.1603C80.8399 14.1274 80.8647 14.0983 80.8943 14.075C80.9239 14.0517 80.9579 14.0345 80.9942 14.0244C81.0305 14.0143 81.0685 14.0115 81.1059 14.0162C81.1433 14.0209 81.1794 14.033 81.2121 14.0518C81.2778 14.089 81.3261 14.1508 81.3464 14.2236C81.3667 14.2964 81.3573 14.3744 81.3204 14.4403L77.7256 20.8262C77.7009 20.8703 77.6649 20.9071 77.6213 20.9327C77.5777 20.9583 77.5281 20.9718 77.4776 20.9719Z" fill="#231F20"/>
<path d="M80.8443 23.0605C80.7955 23.0593 80.7476 23.0466 80.7046 23.0234C80.6717 23.0049 80.6428 22.9802 80.6195 22.9505C80.5962 22.9208 80.579 22.8867 80.569 22.8503C80.5589 22.8139 80.5561 22.7759 80.5608 22.7384C80.5655 22.7009 80.5776 22.6647 80.5963 22.6319L83.7863 16.9633C83.805 16.9304 83.83 16.9016 83.8598 16.8784C83.8896 16.8553 83.9237 16.8383 83.9601 16.8283C83.9965 16.8184 84.0345 16.8157 84.0719 16.8205C84.1094 16.8252 84.1455 16.8373 84.1783 16.8561C84.211 16.8749 84.2397 16.8999 84.2628 16.9298C84.2859 16.9597 84.303 16.9939 84.3129 17.0303C84.3228 17.0668 84.3255 17.1049 84.3207 17.1424C84.316 17.1799 84.3039 17.2161 84.2852 17.249L81.0923 22.9177C81.0672 22.9613 81.031 22.9974 80.9875 23.0225C80.9439 23.0476 80.8946 23.0607 80.8443 23.0605Z" fill="#231F20"/>
<path d="M82.6033 23.8348C82.5544 23.8347 82.5063 23.8219 82.4637 23.7977C82.398 23.7605 82.3497 23.6987 82.3294 23.6258C82.3091 23.553 82.3184 23.4751 82.3553 23.4091L85.1633 18.4176C85.2011 18.3512 85.2636 18.3027 85.3372 18.2826C85.4107 18.2625 85.4891 18.2725 85.5553 18.3104C85.6214 18.3483 85.6699 18.411 85.6899 18.4847C85.71 18.5583 85.7 18.637 85.6622 18.7033L82.8514 23.692C82.8262 23.7356 82.7901 23.7717 82.7465 23.7968C82.703 23.8219 82.6536 23.835 82.6033 23.8348Z" fill="#231F20"/>
<path d="M79.1654 21.8748C79.1164 21.8746 79.0683 21.8618 79.0257 21.8376C78.96 21.8004 78.9117 21.7386 78.8914 21.6658C78.8711 21.5929 78.8804 21.515 78.9173 21.4491L82.2071 15.6032C82.2442 15.5374 82.3059 15.489 82.3786 15.4686C82.4512 15.4483 82.529 15.4576 82.5948 15.4946C82.6605 15.5319 82.7088 15.5936 82.7291 15.6665C82.7494 15.7393 82.74 15.8173 82.7031 15.8832L79.4048 21.7291C79.3808 21.772 79.3461 21.8079 79.3042 21.8334C79.2622 21.859 79.2144 21.8732 79.1654 21.8748Z" fill="#231F20"/>
<path d="M86.4547 25.6777C86.4057 25.6776 86.3576 25.6648 86.315 25.6406C86.2493 25.6034 86.201 25.5416 86.1807 25.4687C86.1604 25.3959 86.1697 25.318 86.2066 25.252L88.3704 21.4148C88.4082 21.3488 88.4706 21.3007 88.5438 21.2809C88.617 21.261 88.6951 21.2712 88.7609 21.3091C88.8267 21.3469 88.8748 21.4095 88.8945 21.4829C88.9143 21.5563 88.9042 21.6346 88.8664 21.7005L86.7027 25.5349C86.6776 25.5785 86.6414 25.6146 86.5979 25.6397C86.5543 25.6648 86.5049 25.6779 86.4547 25.6777Z" fill="#231F20"/>
<path d="M84.6444 24.732C84.5954 24.7319 84.5473 24.7191 84.5047 24.6949C84.439 24.6576 84.3907 24.5958 84.3704 24.523C84.3501 24.4502 84.3594 24.3722 84.3963 24.3063L86.791 20.0519C86.8097 20.0193 86.8346 19.9906 86.8644 19.9676C86.8942 19.9447 86.9281 19.9278 86.9644 19.918C87.0006 19.9081 87.0385 19.9056 87.0758 19.9104C87.113 19.9153 87.149 19.9274 87.1815 19.9462C87.2141 19.9649 87.2426 19.9899 87.2656 20.0198C87.2885 20.0496 87.3054 20.0836 87.3152 20.12C87.325 20.1563 87.3275 20.1943 87.3227 20.2316C87.3178 20.2689 87.3057 20.305 87.287 20.3376L84.8924 24.592C84.8669 24.6351 84.8306 24.6707 84.787 24.6952C84.7435 24.7198 84.6943 24.7325 84.6444 24.732Z" fill="#231F20"/>
<path d="M87.1987 6.6573C86.4775 5.12869 87.9684 1.73147 91.3038 1.51432C93.7241 1.35718 93.9094 2.37148 96.5207 2.13433C99.0864 1.89719 99.5482 -0.185717 101.31 0.0114306C103.673 0.271436 107.356 3.42009 106.974 7.0716C106.618 10.4745 104.936 12.1517 104.258 16.1318C103.628 19.8462 105.349 22.2262 104.853 22.4519C103.998 22.8377 98.1998 16.2404 99.7221 10.7374C100.577 7.59445 100.078 7.56018 99.6679 7.05159C99.1348 6.39158 98.3765 7.35732 95.2664 5.84014C94.1261 5.2687 93.4875 5.39155 92.4441 5.53156C91.2639 5.69156 89.2427 6.93159 87.8402 7.24588C86.9308 7.45446 87.5323 7.36017 87.1987 6.6573Z" fill="#EE3C39"/>
<path d="M88.2209 8.20978L85.6006 7.04871L84.8825 8.67675L87.5028 9.83783L88.2209 8.20978Z" fill="white"/>
<path d="M87.7404 10.3917L84.3367 8.88306L85.4028 6.47157L88.8038 7.97733L87.7404 10.3917ZM85.4598 8.44591L87.2986 9.26021L87.6692 8.40305L85.8333 7.59161L85.4598 8.44591Z" fill="#231F20"/>
<path d="M93.8866 27.9178C94.9367 27.9178 95.788 27.0645 95.788 26.012C95.788 24.9595 94.9367 24.1063 93.8866 24.1063C92.8364 24.1063 91.9851 24.9595 91.9851 26.012C91.9851 27.0645 92.8364 27.9178 93.8866 27.9178Z" fill="white"/>
<path d="M93.8923 28.2064C93.8116 28.2106 93.7308 28.2106 93.65 28.2064C93.2203 28.1592 92.8141 27.9854 92.4828 27.707C92.1516 27.4285 91.9102 27.0579 91.789 26.642C91.6679 26.226 91.6725 25.7834 91.8022 25.3701C91.932 24.9567 92.1811 24.5913 92.5181 24.3198C92.8551 24.0483 93.2648 23.8831 93.6954 23.8449C94.1261 23.8068 94.5584 23.8974 94.9376 24.1054C95.3169 24.3135 95.6261 24.6295 95.8262 25.0136C96.0263 25.3977 96.1083 25.8327 96.0618 26.2635C96.003 26.7997 95.7494 27.2956 95.3493 27.6565C94.9492 28.0175 94.4306 28.2183 93.8923 28.2206V28.2064ZM93.8923 24.392C93.6341 24.3924 93.3796 24.4548 93.1504 24.574C92.9211 24.6933 92.7237 24.8658 92.5746 25.0773C92.4256 25.2887 92.3293 25.5329 92.2938 25.7893C92.2583 26.0457 92.2846 26.3069 92.3705 26.551C92.4565 26.7952 92.5995 27.0151 92.7877 27.1924C92.9759 27.3697 93.2038 27.4992 93.4522 27.5701C93.7006 27.641 93.9624 27.6512 94.2155 27.5998C94.4687 27.5485 94.7059 27.437 94.9072 27.2749C95.1555 27.0734 95.3388 26.8027 95.434 26.497C95.5292 26.1913 95.532 25.8642 95.4421 25.5569C95.3522 25.2496 95.1736 24.9759 94.9287 24.7701C94.6839 24.5643 94.3839 24.4357 94.0663 24.4005C94.0036 24.3948 93.9437 24.392 93.8867 24.392H93.8923Z" fill="#231F20"/>
<path d="M71.9929 44.4153C71.9929 44.4153 65.2708 41.6724 63.2554 46.0496L70.6673 47.4239L71.9929 44.4153Z" fill="#231F20"/>
<path d="M78.8888 46.3925C78.8888 46.3925 86.4291 49.6297 84.5305 54.727L77.8711 50.1869L78.8888 46.3925Z" fill="#231F20"/>
<path d="M69.9402 47.3468C69.9402 47.3468 70.4562 49.9526 73.4894 50.4011C76.5226 50.8497 78.0278 49.7297 78.0278 49.7297L78.2872 47.3268C78.2872 47.3268 75.8241 48.904 73.8001 48.3925C71.776 47.8811 71.4767 46.761 71.4767 46.761L69.9402 47.3468Z" fill="white"/>
<path d="M74.8835 50.9383C74.3959 50.9364 73.909 50.8991 73.4268 50.8269C72.7947 50.7505 72.185 50.545 71.6354 50.2231C71.0857 49.9012 70.6077 49.4698 70.2311 48.9554C69.8965 48.4986 69.6553 47.9801 69.5212 47.4297L69.45 47.0725L71.7705 46.1896L71.8902 46.6496C71.8902 46.6782 72.1753 47.5439 73.9028 47.9782C75.7273 48.4382 78.0336 46.9811 78.0564 46.9639L78.809 46.4839L78.4327 49.9611L78.2816 50.0726C78.2274 50.1154 77.0928 50.9383 74.8835 50.9383ZM70.4648 47.6039C70.7129 48.2668 71.4768 49.6697 73.5522 49.9783C75.8556 50.3211 77.1983 49.7154 77.6231 49.4783L77.7742 48.0954C76.8391 48.5554 75.1857 49.184 73.6947 48.8097C72.2038 48.4354 71.5595 47.7468 71.2716 47.2982L70.4648 47.6039Z" fill="#231F20"/>
<path d="M4.46427 25.1434L4.27612 25.9749L23.5857 30.3643L23.7738 29.5328L4.46427 25.1434Z" fill="#231F20"/>
<path d="M5.98667 25.6149L2.78243 24.872L1.59082 22.7119L4.79506 23.452L5.98667 25.6149Z" fill="white"/>
<path d="M6.54543 26.0349L2.5943 25.1377L1.03491 22.3062L4.98605 23.2177L6.54543 26.0349ZM2.97058 24.6234L5.43078 25.1949L4.60976 23.7063L2.15242 23.1348L2.97058 24.6234Z" fill="#231F20"/>
<path d="M0.687012 26.6492L3.89125 27.3892L5.90388 25.9692L2.69964 25.2291L0.687012 26.6492Z" fill="white"/>
<path d="M3.95113 27.7092L0 26.7949L2.64265 24.932L6.59093 25.8463L3.95113 27.7092ZM1.38546 26.5263L3.8428 27.0978L5.23115 26.1177L2.77377 25.5463L1.38546 26.5263Z" fill="#231F20"/>
<path d="M25.4639 54.6327L5.61499 56.153L5.68016 57.0076L25.529 55.4874L25.4639 54.6327Z" fill="#231F20"/>
<path d="M8.42385 56.1784L5.14549 56.4298L3.36377 54.7212L6.64498 54.4727L8.42385 56.1784Z" fill="white"/>
<path d="M5.04018 56.7241L2.70825 54.4869L6.75063 54.1755L9.08252 56.4127L5.04018 56.7241ZM4.0253 54.9584L5.25113 56.1327L7.76548 55.9413L6.53968 54.767L4.0253 54.9584Z" fill="#231F20"/>
<path d="M3.67188 58.7499L6.95024 58.4985L8.44973 56.5413L5.17137 56.7927L3.67188 58.7499Z" fill="white"/>
<path d="M3.05884 59.0842L5.02586 56.5127L9.06824 56.2013L7.10122 58.7728L3.05884 59.0842ZM5.32235 57.067L4.28753 58.4156L6.80473 58.2242L7.8367 56.8756L5.32235 57.067Z" fill="#231F20"/>
<path d="M43.5697 58.8785L24.8301 65.6183L25.1189 66.4251L43.8586 59.6853L43.5697 58.8785Z" fill="#231F20"/>
<path d="M24.4479 66.2815L21.5972 64.7472L25.4143 63.3729L28.2651 64.9101L24.4479 66.2815ZM23.0026 64.8529L24.4935 65.6615L26.8682 64.8043L25.3744 63.9957L23.0026 64.8529Z" fill="#231F20"/>
<path d="M23.1624 69.0759L24.3768 66.0815L28.1939 64.7072L26.9767 67.7044L23.1624 69.0759ZM24.8101 66.5329L24.1715 68.1073L26.5462 67.2501L27.1848 65.6758L24.8101 66.5329Z" fill="#231F20"/>
<path d="M19.9808 39.7409L19.5247 39.6038L19.5874 38.9152L20.1918 39.0952L20.4768 38.238L19.6729 37.998L19.7328 37.3037L20.6906 37.5894L21.0641 36.4465L21.8167 36.6723L21.4404 37.8151L22.1844 38.0352L22.5522 36.8923L23.3304 37.1237L22.9513 38.2666L23.4159 38.4037L23.3532 39.098L22.7403 38.9123L22.4552 39.7695L23.2705 40.0123L23.2107 40.7009L22.2443 40.4152L21.8709 41.5581L21.1211 41.3352L21.4888 40.1923L20.7419 39.9695L20.3685 41.1123L19.6102 40.8866L19.9808 39.7409ZM21.2294 38.458L20.9444 39.3152L21.6884 39.538L21.9735 38.6809L21.2294 38.458Z" fill="#282828"/>
<path d="M24.1001 37.4237L26.0672 38.0123C26.3589 38.0944 26.6446 38.1965 26.9224 38.318C27.107 38.4013 27.2751 38.5175 27.4184 38.6609C27.5627 38.8035 27.6788 38.9722 27.7605 39.158C27.8458 39.3356 27.8813 39.5332 27.8631 39.7295C27.8518 39.9314 27.7677 40.1222 27.6265 40.2666C27.4808 40.4117 27.2893 40.5016 27.0849 40.5209C27.3527 40.6683 27.5776 40.883 27.7377 41.1438C27.8787 41.3718 27.9427 41.6393 27.9201 41.9067C27.9039 42.113 27.8308 42.3108 27.7092 42.4781C27.5936 42.6411 27.4286 42.7624 27.2388 42.8238C27.0164 42.8904 26.7805 42.8973 26.5546 42.8438C26.3864 42.8095 25.9845 42.701 25.3545 42.5181L23.6782 42.0152L24.1001 37.4237ZM25.0266 38.4837L24.9326 39.5466L25.5825 39.7409C25.9702 39.858 26.2125 39.9238 26.3066 39.9409C26.446 39.9762 26.5934 39.9611 26.7228 39.898C26.7765 39.8644 26.8209 39.8177 26.8518 39.7622C26.8827 39.7068 26.8991 39.6444 26.8995 39.5809C26.9145 39.4461 26.8812 39.3104 26.8055 39.198C26.7168 39.069 26.5918 38.9695 26.4463 38.9123C26.3465 38.8723 26.0643 38.7837 25.5911 38.6437L25.0266 38.4837ZM24.8641 40.3123L24.7558 41.5409L25.6737 41.8267C25.8976 41.9003 26.1262 41.9585 26.3579 42.001C26.4891 42.0246 26.6244 41.9981 26.7371 41.9267C26.7897 41.8849 26.8326 41.832 26.8627 41.7717C26.8927 41.7115 26.9092 41.6454 26.911 41.5781C26.9237 41.4456 26.8969 41.3124 26.834 41.1952C26.7672 41.0709 26.6689 40.9664 26.5489 40.8924C26.2709 40.7493 25.9772 40.639 25.6737 40.5638L24.8641 40.3123Z" fill="#282828"/>
<path d="M28.5332 41.9352L29.5053 42.1352C29.5193 42.4164 29.6187 42.6866 29.7904 42.9095C29.9776 43.1176 30.2213 43.2665 30.4917 43.3381C30.7275 43.4315 30.9883 43.4406 31.23 43.3638C31.3076 43.3351 31.3756 43.285 31.426 43.2193C31.4764 43.1536 31.5073 43.0749 31.5151 42.9924C31.5241 42.8834 31.4959 42.7746 31.4352 42.6838C31.3439 42.56 31.2285 42.4561 31.096 42.3781C30.9858 42.3076 30.7264 42.1619 30.3178 41.9409C29.9129 41.7459 29.5468 41.4787 29.2373 41.1524C29.1084 41.0092 29.0092 40.8417 28.9456 40.6597C28.8819 40.4777 28.8551 40.2848 28.8667 40.0923C28.8874 39.8672 28.9887 39.6571 29.1518 39.5009C29.329 39.3298 29.5618 39.2283 29.8075 39.2152C30.1405 39.196 30.4741 39.2396 30.791 39.3437C31.3127 39.4715 31.7861 39.7485 32.1536 40.1409C32.4326 40.4595 32.5759 40.8749 32.5528 41.2981L31.5578 41.0438C31.5472 40.8272 31.4673 40.6198 31.3298 40.4523C31.1595 40.284 30.9466 40.1655 30.714 40.1095C30.4923 40.0266 30.2506 40.0136 30.0213 40.0723C29.9699 40.0881 29.9245 40.1192 29.8914 40.1617C29.8582 40.2041 29.8389 40.2557 29.836 40.3095C29.8336 40.3695 29.8435 40.4293 29.8651 40.4853C29.8866 40.5414 29.9195 40.5924 29.9614 40.6352C30.2253 40.8697 30.5233 41.0624 30.8452 41.2066C31.2124 41.3909 31.5616 41.609 31.8885 41.8581C32.0993 42.0286 32.2705 42.2431 32.3902 42.4867C32.5055 42.7334 32.5509 43.0072 32.5214 43.2781C32.5077 43.5276 32.4068 43.7644 32.2363 43.9467C32.0463 44.1466 31.7873 44.2662 31.5122 44.281C31.144 44.297 30.776 44.2456 30.4261 44.1296C29.8891 43.9959 29.4033 43.7068 29.0292 43.2981C28.7104 42.9157 28.5349 42.4336 28.5332 41.9352Z" fill="#282828"/>
<path d="M33.2397 44.8753L33.6474 40.2838L34.6423 40.5695L34.4798 42.3781L36.4269 42.9496L36.5894 41.1409L37.5814 41.4267L37.1738 46.0182L36.1789 45.7325L36.3585 43.7324L34.4114 43.161L34.2318 45.161L33.2397 44.8753Z" fill="#282828"/>
<path d="M42.6301 47.6839L41.5497 47.3611L41.2104 46.1868L39.2434 45.6153L38.7445 46.5353L37.6926 46.221L40.016 42.2009L41.0679 42.5152L42.6301 47.6839ZM40.9624 45.3182L40.435 43.4124L39.6197 44.9182L40.9624 45.3182Z" fill="#282828"/>
<path d="M43.1689 47.8411L43.5766 43.2496L45.6691 43.8724C46.0682 43.9759 46.4517 44.1326 46.8094 44.3382C47.0384 44.4905 47.2225 44.7017 47.3424 44.9496C47.4649 45.1933 47.5173 45.4663 47.4935 45.7382C47.4897 45.887 47.4514 46.0328 47.3816 46.1642C47.3118 46.2957 47.2126 46.409 47.0916 46.4953C46.783 46.6659 46.4217 46.7139 46.0796 46.6296C46.2668 46.79 46.4343 46.9723 46.5784 47.1725C46.7661 47.465 46.9328 47.7706 47.0773 48.0868L47.599 49.1611L46.4102 48.8068L45.7802 47.5925C45.6412 47.3068 45.4861 47.0292 45.3156 46.7611C45.2393 46.6487 45.1426 46.5518 45.0305 46.4753C44.8743 46.3878 44.7076 46.3206 44.5345 46.2753L44.332 46.2153L44.161 48.1325L43.1689 47.8411ZM44.3976 45.4867L45.1331 45.7067C45.4243 45.8082 45.7253 45.8791 46.0311 45.9182C46.1365 45.9173 46.238 45.8776 46.3162 45.8068C46.3959 45.721 46.4424 45.6095 46.4473 45.4925C46.4634 45.3469 46.4281 45.2003 46.3475 45.0782C46.258 44.95 46.1332 44.8507 45.9883 44.7924C45.9085 44.7582 45.669 44.681 45.2642 44.5581L44.4888 44.3267L44.3976 45.4867Z" fill="#282828"/>
<path d="M48.1292 49.324L48.5368 44.7296L50.1332 45.2067C50.5367 45.3115 50.9299 45.4531 51.3077 45.6296C51.5871 45.783 51.8181 46.0117 51.9748 46.2896C52.1471 46.5855 52.22 46.9291 52.1829 47.2696C52.1724 47.5081 52.0932 47.7383 51.9548 47.9325C51.8373 48.0842 51.6776 48.1975 51.4959 48.2582C51.3236 48.3165 51.1412 48.3389 50.9599 48.324C50.6091 48.2705 50.2631 48.1893 49.9251 48.0811L49.278 47.8868L49.1241 49.6211L48.1292 49.324ZM49.4633 45.8039L49.3464 47.1068L49.8909 47.2696C50.1451 47.3612 50.411 47.416 50.6806 47.4325C50.8034 47.4293 50.9209 47.3816 51.0113 47.2982C51.0995 47.2134 51.1516 47.0977 51.1566 46.9753C51.1717 46.8127 51.1294 46.6499 51.0369 46.5153C50.9412 46.375 50.8091 46.2634 50.6549 46.1925C50.4228 46.0954 50.1848 46.0133 49.9422 45.9468L49.4633 45.8039Z" fill="#282828"/>
<path d="M25.5698 53.6951L25.0049 53.7726L25.3762 56.493L25.9411 56.4155L25.5698 53.6951Z" fill="#231F20"/>
<path d="M26.2953 29.0781L25.8857 31.8883L26.4499 31.9709L26.8595 29.1607L26.2953 29.0781Z" fill="#231F20"/>
<path d="M43.5042 57.8195L42.9612 57.9936L43.8281 60.7096L44.3711 60.5354L43.5042 57.8195Z" fill="#231F20"/>
<path d="M22.8745 32.4493L24.0547 27.3263L26.7487 29.8435L26.5491 31.3207L22.8745 32.4493ZM24.0148 30.015L23.6471 31.6121L26.0275 30.8836L26.1386 30.0578L24.3826 28.4178L24.0148 30.015Z" fill="#231F20"/>
</g>
<defs>
<clipPath id="clip0_2288_33008">
<rect width="107" height="126" fill="white"/>
</clipPath>
</defs>
</svg>
